<?xml version="1.0" encoding="utf-8"?>
<!-- Generator: Adobe Illustrator 18.1.1, SVG Export Plug-In . SVG Version: 6.00 Build 0)  -->
<svg version="1.1" id="Calque_1" xmlns="http://www.w3.org/2000/svg" xmlns:xlink="http://www.w3.org/1999/xlink" x="0px" y="0px"
	 viewBox="0 0 482 100" enable-background="new 0 0 482 100" xml:space="preserve">
<text transform="matrix(1 0 0 1 624.833 -367.4775)" font-family="'GearedSlab-Extrabold'" font-size="69.2565">BATTLE</text>
<path d="M99.1-353.4c1.1,0.6,2,1.6,2.5,2.9c0.5,1.3,0.9,2.8,1,4.5l0.9,7.5c0.4,3.4-0.2,6.2-1.9,8.4s-4.5,3.6-8.4,4l-17.3,2l-0.5-4.3
	c-0.1-0.9-0.1-1.6,0.1-2.2c0.2-0.5,0.5-0.9,0.9-1.2c0.2-0.1,0.4-0.3,0.6-0.6c0.2-0.3,0.2-0.6,0.2-1l-3.9-33.4
	c-0.1-0.7-0.4-1.2-1-1.3c-0.5-0.2-0.9-0.5-1.2-1c-0.3-0.5-0.6-1.2-0.7-2.3l-0.5-4.2l16.6-1.9c3.9-0.5,6.9,0.2,9.1,2
	c2.2,1.8,3.4,4.4,3.8,7.8l0.7,5.8c0.2,1.4,0.2,2.8,0.1,4.1c-0.1,1.3-0.5,2.4-1.3,3.3c-0.2,0.3-0.3,0.5-0.2,0.7
	C98.7-353.7,98.8-353.6,99.1-353.4z M83.8-357.7c0.1,0.6,0.3,1,0.6,1.2c0.3,0.1,0.7,0.2,1.2,0.2l1.7-0.2c1.1-0.1,1.9-0.5,2.5-1.3
	c0.6-0.7,0.8-1.7,0.7-2.9l-0.5-4.5c-0.2-1.5-0.6-2.6-1.4-3.2c-0.7-0.6-1.7-0.9-2.9-0.7l-1.6,0.2c-0.6,0.1-1.1,0.2-1.2,0.4
	c-0.2,0.2-0.2,0.6-0.2,1.2L83.8-357.7z M93.1-344.3c-0.2-1.6-0.6-2.8-1.2-3.7c-0.6-0.9-1.5-1.3-2.6-1.1l-3.1,0.4
	c-0.4,0-0.7,0.2-0.9,0.4c-0.2,0.3-0.3,0.5-0.2,0.9l1.5,13c0,0.3,0.2,0.5,0.4,0.8c0.2,0.2,0.5,0.3,0.7,0.3l3.4-0.4
	c1.2-0.1,2-0.7,2.4-1.5c0.4-0.9,0.5-1.9,0.4-3.2L93.1-344.3z"/>
<path d="M138.4-338.5c0.4,0.2,0.7,0.6,1,1.1c0.3,0.5,0.5,1.2,0.5,1.9v4.8H126v-4c0-0.8,0.2-1.6,0.5-2.3c0.3-0.7,0.7-1.2,1-1.4
	c0.2-0.2,0.4-0.4,0.6-0.6c0.2-0.2,0.2-0.5,0.2-0.9c0-0.4-0.1-0.7-0.1-1c0-0.3-0.1-0.6-0.2-0.9c-0.1-0.3-0.1-0.6-0.2-0.8
	c-0.1-0.4-0.3-0.6-0.5-0.7c-0.2-0.1-0.5-0.2-0.9-0.2H120c-0.4,0-0.7,0-0.9,0.1c-0.2,0.1-0.3,0.3-0.4,0.8c0,0.2-0.1,0.5-0.1,0.8
	c0,0.3-0.1,0.6-0.2,0.9c-0.1,0.3-0.2,0.7-0.2,1c0,0.4,0,0.7,0.1,0.9c0.1,0.2,0.3,0.4,0.5,0.6c0.4,0.2,0.7,0.7,1,1.4
	c0.3,0.7,0.5,1.5,0.5,2.3v3.9h-13.6v-4.8c0-0.8,0.2-1.4,0.5-1.9c0.3-0.5,0.7-0.9,1-1.1c0.2-0.2,0.4-0.4,0.6-0.6
	c0.2-0.2,0.3-0.5,0.4-0.9c1.3-6.1,2.5-11.7,3.5-16.6c0.5-2.1,0.9-4.1,1.3-6.1s0.8-3.8,1.1-5.3c0.3-1.6,0.6-2.8,0.8-3.8
	c0.2-1,0.3-1.5,0.3-1.5c0.1-0.4,0.1-0.7,0.1-1c0-0.3-0.1-0.5-0.3-0.6c-0.5-0.2-0.9-0.6-1.2-1.1c-0.3-0.5-0.5-1.3-0.5-2.4v-3.9h10.7
	c1.1,0,1.9,0.3,2.5,1c0.6,0.6,1,1.4,1.1,2.1c0,0.2,0.1,0.9,0.4,2.1c0.3,1.2,0.6,2.8,1,4.6s0.9,4,1.4,6.3c0.5,2.3,1,4.7,1.5,7.1
	c1.2,5.6,2.6,12,4.2,19.1C137.5-339.4,137.8-338.9,138.4-338.5z M125.8-351.3c0.3,0,0.5,0,0.6-0.1c0.1-0.1,0.1-0.2,0.1-0.5
	c0-0.1-0.1-0.6-0.2-1.5c-0.2-0.9-0.3-1.9-0.6-3.2c-0.2-1.2-0.4-2.6-0.7-4.1c-0.3-1.5-0.5-2.8-0.7-4.1c-0.2-1.2-0.4-2.3-0.6-3.1
	c-0.2-0.8-0.2-1.3-0.2-1.3c0-0.2-0.1-0.3-0.2-0.2c-0.1,0-0.2,0.1-0.2,0.2c0,0-0.1,0.5-0.2,1.4c-0.1,0.9-0.3,1.9-0.6,3.2
	c-0.2,1.2-0.5,2.6-0.7,4c-0.3,1.4-0.5,2.8-0.7,4.1c-0.2,1.3-0.4,2.3-0.6,3.2c-0.2,0.9-0.2,1.4-0.2,1.5c0,0.3,0,0.5,0.1,0.5
	c0.1,0.1,0.3,0.1,0.6,0.1H125.8z"/>
<path d="M169.6-374.7c0.3,0.4,0.4,1.2,0.3,2.3l-0.6,4.8l-0.5,3.4l-4-0.5c-1.2-0.2-2-0.8-2.5-2c-0.2-0.5-0.3-0.9-0.5-1.1
	c-0.2-0.2-0.7-0.4-1.4-0.5l-0.9-0.1c-0.6-0.1-0.9,0.3-1,1l-4.5,33.2c-0.1,0.5,0,0.8,0.1,1c0.2,0.2,0.3,0.4,0.5,0.6
	c0.3,0.3,0.6,0.7,0.8,1.2c0.3,0.5,0.3,1.2,0.2,2l-0.6,4.4l-14-1.9l0.6-4.4c0.1-0.8,0.4-1.4,0.8-1.9c0.4-0.5,0.8-0.8,1.2-1
	c0.3-0.2,0.5-0.3,0.6-0.5c0.2-0.2,0.3-0.5,0.3-0.9l4.4-33.4c0-0.3-0.1-0.6-0.3-0.8c-0.3-0.2-0.5-0.3-0.7-0.3l-0.7-0.1
	c-0.3,0-0.6,0-1,0.1c-0.4,0.1-0.8,0.4-1.1,1c-0.4,0.6-0.8,1-1.2,1.2c-0.4,0.2-1.1,0.2-2.1,0.1l-3.6-0.5l0.5-3.8l0.6-4.5
	c0.1-1.1,0.5-1.7,1-2.1c0.6-0.3,1.2-0.4,2-0.3l25.3,3.3C168.6-375.3,169.2-375.1,169.6-374.7z"/>
<path d="M199.7-388.7c0.4,0.3,0.7,1,0.8,2.2l0.4,4.8l0.3,3.5l-4,0.3c-1.2,0.1-2.1-0.4-2.8-1.4c-0.3-0.5-0.5-0.8-0.7-1
	c-0.2-0.2-0.7-0.2-1.5-0.2l-0.9,0.1c-0.6,0-0.9,0.5-0.8,1.2l2.6,33.4c0,0.5,0.2,0.8,0.4,0.9c0.2,0.2,0.4,0.3,0.7,0.5
	c0.3,0.2,0.7,0.5,1.1,1s0.6,1.1,0.6,1.9l0.4,4.4l-14.1,1.2l-0.4-4.4c-0.1-0.8,0.1-1.4,0.4-2c0.3-0.5,0.6-0.9,1-1.2
	c0.2-0.2,0.4-0.4,0.5-0.7c0.1-0.2,0.2-0.5,0.1-0.9l-2.8-33.6c0-0.3-0.2-0.6-0.5-0.7c-0.3-0.1-0.5-0.2-0.8-0.2l-0.7,0.1
	c-0.3,0-0.6,0.1-1,0.3c-0.4,0.2-0.7,0.6-0.9,1.2c-0.3,0.7-0.6,1.1-1,1.4c-0.4,0.3-1.1,0.4-2.1,0.5l-3.6,0.3l-0.3-3.8l-0.4-4.5
	c-0.1-1.1,0.1-1.8,0.6-2.2c0.5-0.4,1.1-0.7,1.9-0.7l25.5-2.1C198.6-389.1,199.3-388.9,199.7-388.7z"/>
<path d="M232.1-337.5l-1.1,8.9c-0.1,0.9-0.5,1.6-1,1.9c-0.6,0.4-1,0.5-1.4,0.5l-1-0.1l-24.1-3l0.6-4.4c0.1-1,0.3-1.8,0.7-2.3
	c0.3-0.5,0.7-0.8,1.2-1c0.2-0.1,0.5-0.2,0.7-0.4c0.2-0.2,0.3-0.5,0.4-0.8l4.1-32.9l0.1-0.4c0.1-0.5,0-0.8-0.1-1
	c-0.1-0.2-0.2-0.4-0.4-0.6c-0.3-0.3-0.7-0.8-1-1.3c-0.3-0.5-0.4-1.2-0.3-2l0.5-4.3l14.2,1.8l-0.5,4.3c-0.1,0.8-0.4,1.4-0.8,1.9
	c-0.4,0.5-0.8,0.8-1.2,1c-0.3,0.2-0.4,0.3-0.6,0.5c-0.1,0.2-0.2,0.5-0.3,0.9l-4.2,33.4c-0.1,0.8,0.2,1.2,0.7,1.3l5.1,0.6
	c0.3,0,0.6,0,1-0.2c0.3-0.2,0.6-0.4,0.7-0.6c0.3-0.4,0.7-0.9,1.4-1.5c0.6-0.6,1.4-0.8,2.5-0.7L232.1-337.5z"/>
<path d="M247.3-371.7c-0.2,0.2-0.2,0.5-0.2,0.7l1.7,11.4c0,0.3,0.2,0.5,0.4,0.7c0.2,0.1,0.5,0.2,0.8,0.1l8.6-1.3
	c0.2,0,0.5,0,0.8,0.1c0.3,0.1,0.4,0.4,0.5,0.7l0.8,5.5c0.1,0.6-0.2,1-0.9,1.1l-8.7,1.3c-0.7,0.1-1,0.5-0.9,1l1.9,12.8
	c0,0.3,0.2,0.5,0.4,0.6c0.3,0.1,0.5,0.2,0.8,0.2l5.5-0.8c0.4-0.1,0.7-0.3,0.9-0.8c0.1-0.2,0.1-0.5,0.2-0.9c0.1-0.3,0.2-0.7,0.4-1
	c0.2-0.3,0.5-0.6,0.8-0.9c0.3-0.3,0.8-0.4,1.3-0.5l4.2-0.6l1.4,9.6c0.1,0.5-0.1,1-0.6,1.3c-0.5,0.4-0.9,0.6-1.4,0.7l-4.5,0.7
	l-15.7,2.3l-4.1,0.6l-0.6-4.1c-0.1-1-0.1-1.8,0.1-2.4c0.2-0.6,0.5-1,0.9-1.3c0.5-0.4,0.7-0.9,0.6-1.6l-5-33.3
	c-0.1-0.7-0.5-1.2-1.1-1.4c-0.5-0.2-0.9-0.5-1.2-0.9c-0.3-0.4-0.6-1.1-0.7-2l-0.6-4.3l24.5-3.6c0.5-0.1,1,0.1,1.5,0.4
	c0.4,0.4,0.7,0.7,0.8,1.1l1.3,9l-4,0.6c-0.9,0.1-1.7,0-2.3-0.4c-0.6-0.4-1.1-0.8-1.4-1.1c-0.4-0.5-0.9-0.7-1.6-0.6l-5.1,0.8
	C247.7-372,247.5-371.9,247.3-371.7z"/>
<text transform="matrix(1 0 0 1 823.2197 -367.6309)" fill="#3F3F3F" font-family="'Pigeon'" font-size="73.8005">TRACK</text>
<rect x="284" y="-385.4" fill="none" width="230" height="160"/>
<text transform="matrix(1 0 0 1 283.9792 -323.6031)" font-family="'Gothular'" font-size="83">TRACK</text>
<g>
	<path fill="#D54F58" d="M279.1,35.9c-2,0.2-4,0.4-6.1,0.6c-0.9,3.6-1.8,7.3-2.8,11.1c-1,3.8-1.9,7.6-2.8,11.4
		c-0.9,3.8-1.7,7.5-2.5,11c-0.8,3.6-1.5,6.9-2.1,10c-0.1,0.6-0.3,1-0.6,1.2c-0.3,0.2-0.8,0.3-1.3,0.3c-0.6,0-1.2-0.1-1.9-0.4
		c-0.7-0.2-1.5-0.4-2.4-0.7c-0.9-0.3-1.7-0.5-2.4-0.8c-0.7-0.3-1.3-0.7-1.8-1.1c-0.5-0.4-0.8-0.9-1.1-1.5s-0.2-1.3-0.1-2.1
		c0.1-2,0.4-4.6,0.8-7.6c0.4-3,0.8-6.1,1.4-9.5c0.5-3.3,1.1-6.7,1.8-10.1c0.6-3.4,1.3-6.5,1.9-9.4c-1.2,0.2-2.4,0.4-3.6,0.5
		c-1.2,0.1-2.1,0.3-2.9,0.5c-1.1,0.3-1.9,0.3-2.6,0.1c-0.7-0.2-1.5-0.7-2.3-1.6c-0.9-0.9-1.7-2-2.5-3.4c-0.7-1.4-1.4-2.5-1.8-3.5
		c-0.5-1-0.6-1.6-0.4-2s0.8-0.6,1.6-0.8c2.5-0.5,5.4-1,8.5-1.4c3.2-0.4,6.4-0.8,9.7-1.2c3.3-0.3,6.5-0.6,9.7-0.9
		c3.2-0.2,6-0.4,8.5-0.5c1.3,0,2.3,0.1,2.8,0.4c0.6,0.2,1.1,0.6,1.5,1.2c0.9,1,1.6,2,2.1,3.2c0.6,1.2,1,2.3,1.3,3.4
		c0.3,1,0.3,1.7,0,2c-0.2,0.4-1,0.6-2.3,0.7C282.9,35.5,281.1,35.7,279.1,35.9z"/>
	<path fill="#D54F58" d="M298.5,72.8c-0.5,2.4-1,4.7-1.4,7c-0.2,0.7-0.5,1.1-0.9,1.3c-0.4,0.2-1,0.2-2,0c-1.2-0.3-2.2-0.5-3.1-0.7
		c-0.9-0.2-1.8-0.5-2.6-0.9c-0.8-0.5-1.4-1-1.7-1.7c-0.3-0.7-0.4-1.5-0.3-2.7c0.1-0.9,0.2-2.2,0.4-3.9c0.1-1.7,0.3-3.6,0.5-5.8
		c0.2-2.2,0.5-4.5,0.7-6.9c0.3-2.5,0.6-4.9,0.9-7.4c0.3-2.5,0.7-4.9,1.1-7.2c0.4-2.3,0.8-4.4,1.2-6.3c0.4-1.9,0.9-3.4,1.4-4.6
		c0.5-1.2,1-2,1.6-2.3c2.6-1.2,5.4-2.4,8.3-3.5c2.9-1.2,5.7-2,8.5-2.5c2.8-0.5,5.4-0.5,7.9-0.1c2.5,0.4,4.7,1.5,6.6,3.4
		c1.5,1.6,2.8,3.4,4.1,5.2c1.2,1.9,2.2,4.1,2.8,6.8c0.6,2.9,0.3,5.2-0.6,7c-1.5,2.9-4,5.7-7.4,8.1c-3.4,2.5-7.5,4.8-12.3,6.9
		c1,1.1,2.1,2.3,3.2,3.5c1.2,1.2,2.4,2.5,3.6,3.7c1.2,1.2,2.5,2.4,3.7,3.6c1.2,1.2,2.4,2.2,3.4,3c0.9,0.7,1.2,1.3,1.2,1.7
		c-0.1,0.4-0.4,0.9-1.1,1.3c-0.8,0.6-1.4,0.9-2,1.1c-0.5,0.1-1.2,0.2-2,0.4c-0.9,0.3-2,0.3-3.1,0.2c-1.1-0.1-2.4-0.6-3.9-1.5
		c-1-0.7-2.1-1.5-3.4-2.6c-1.3-1-2.6-2.2-4-3.4c-1.4-1.2-2.7-2.5-4.1-3.9c-1.4-1.3-2.6-2.7-3.7-4.1C299.5,67.9,299,70.4,298.5,72.8z
		 M305,46.3c-0.6,2.5-1.4,5.1-2.2,7.9c2.9-1,5.6-2.2,7.8-3.6c2.3-1.4,4.2-2.9,5.7-4.4c1.5-1.5,2.6-2.9,3.3-4.2
		c0.7-1.3,0.9-2.3,0.6-3.1c-0.5-1.2-2-1.8-4.5-1.8c-1.2,0-2.6,0.1-4.1,0.4c-1.5,0.3-3.1,0.9-4.7,1.7C306.3,41.5,305.6,43.8,305,46.3
		z"/>
	<path fill="#D54F58" d="M354.8,69.5c-3.2,0.4-6,1-8.4,1.6c-0.9,1.7-1.6,3.2-2.2,4.6c-0.6,1.4-1.3,2.8-1.9,4.2
		c-0.3,0.7-0.8,1.2-1.2,1.3c-0.5,0.1-1.2,0-2.2-0.3c-0.6-0.2-1.2-0.5-1.8-0.7c-0.7-0.3-1.3-0.6-2-0.9c-0.5-0.3-1-0.6-1.3-0.9
		c-0.4-0.2-0.7-0.5-0.9-0.9c-0.2-0.3-0.3-0.8-0.4-1.3c0-0.5,0.1-1.2,0.4-2.1c1-2.9,2.4-6.4,4-10.4c1.6-4,3.4-8.1,5.3-12.3
		c1.9-4.2,3.8-8.4,5.8-12.5c2-4.1,3.9-7.8,5.7-11c0.6-1.2,1.5-2.1,2.5-2.8c1-0.7,2.5-1,4.5-0.8c1.7,0.1,3.3,0.2,4.7,0.4
		c1.4,0.2,2.6,0.4,3.7,0.7c1.1,0.3,2.2,0.5,3.1,0.8c1,0.3,1.9,0.6,2.9,0.8c1.3,0.5,2.2,1.1,2.5,1.9c0.4,0.8,0.5,1.8,0.4,3
		c-0.3,3-0.5,6.5-0.6,10.4c-0.2,3.9-0.3,8-0.4,12.3c-0.1,4.3-0.1,8.5-0.2,12.8c0,4.3,0,8.3,0,11.9c0,0.8-0.2,1.3-0.5,1.6
		c-0.3,0.3-1,0.4-2.1,0.4c-1.1,0-2.1,0-3.1-0.1c-0.9-0.1-1.9-0.3-2.9-0.6c-1-0.3-1.7-0.7-2.1-1.2c-0.4-0.5-0.7-1.3-0.9-2.5
		c-0.2-1.2-0.3-2.6-0.4-4.1c-0.1-1.5-0.3-3.1-0.4-4.8C361.1,68.6,357.9,69,354.8,69.5z M357.9,58.4c1.9-0.2,3.9-0.4,5.9-0.5
		c-0.1-3.5-0.2-7-0.2-10.5c0-3.5,0-6.9,0.1-10.3c-1.7,3.1-3.6,6.6-5.5,10.3c-2,3.8-4,7.7-6,11.7C354,58.9,356,58.6,357.9,58.4z"/>
	<path fill="#D54F58" d="M419,68.8c0.1,0.9-0.3,2-1,3.3c-0.8,1.5-1.8,2.9-2.9,4.2c-1.2,1.3-2.4,2.3-3.6,3.2
		c-0.6,0.4-1.3,0.7-2.1,1.1c-0.8,0.3-1.7,0.6-2.6,0.8c-0.9,0.2-1.9,0.4-2.9,0.4c-1,0.1-2,0.1-2.9,0c-2-0.1-3.8-0.4-5.4-0.9
		c-1.6-0.5-3.1-0.9-4.4-1.4c-1.2-0.5-2.3-1.2-3.5-2s-2-1.9-2.7-3.1c-1.1-1.8-1.9-4-2.3-6.5c-0.4-2.5-0.6-5.2-0.5-8
		c0.1-2.8,0.5-5.8,1.2-8.8c0.7-3,1.7-5.9,2.9-8.8c1.2-2.9,2.7-5.6,4.4-8.1c1.7-2.5,3.7-4.8,5.9-6.7c1.8-1.5,3.6-2.5,5.4-3
		c1.8-0.5,3.6-0.6,5.2-0.5c1.2,0.1,2.4,0.4,3.7,0.7c1.3,0.3,2.5,0.7,3.7,1.2c1.2,0.4,2.3,0.9,3.4,1.5c1.1,0.5,2,1.1,2.9,1.6
		c0.8,0.7,1.5,1.4,2,2c0.5,0.7,1,1.3,1.3,2c0.3,0.7,0.5,1.4,0.7,2.1c0.1,0.7,0.2,1.5,0.3,2.4c0,1,0,2,0,3.1
		c-0.1,1.1-0.2,2.1-0.3,3.2c-0.1,1-0.3,2-0.5,3c-0.2,1-0.4,1.8-0.7,2.6c-0.1,0.3-0.3,0.7-0.4,1c-0.1,0.3-0.3,0.5-0.5,0.7
		c-0.2,0.2-0.6,0.3-1,0.3c-0.4,0-1,0-1.7-0.1c-1.4-0.3-2.5-0.6-3.5-1.1c-1-0.4-1.8-1-2.4-1.6c-0.6-0.6-1.2-1.3-1.5-2.1
		c-0.4-0.8-0.7-1.7-0.8-2.8c-0.1-0.9-0.2-1.7-0.2-2.5c0-1.4,0-2.6-0.2-3.7c-0.2-1.1-0.7-1.8-1.5-2.2c-0.9-0.3-1.9,0.2-3,1.5
		c-1.2,1.2-2.3,2.8-3.5,4.8c-1.2,2-2.3,4.2-3.4,6.6c-1,2.4-1.9,4.6-2.5,6.7c-0.6,2.1-1,4.3-1.2,6.4c-0.3,2.1-0.4,4-0.3,5.8
		c0.1,1.7,0.4,3.2,0.8,4.4c0.5,1.2,1.2,1.9,2,2.2c1.7,0.6,4.3-1,7.8-4.5c2.5-2.6,5.8-3.3,9.9-2.1C418.1,67.2,418.9,67.9,419,68.8z"
		/>
	<path fill="#D54F58" d="M453.8,65.2c1,1.5,2,2.9,3,4.3c1,1.4,1.9,2.6,2.8,3.8c0.9,1.2,1.7,2.1,2.4,2.9c0.7,0.7,1,1.3,0.9,1.8
		c-0.1,0.4-0.7,0.9-1.6,1.3c-0.6,0.3-1.2,0.6-2,0.8c-0.7,0.2-1.5,0.4-2.2,0.4c-1.1,0.3-2.2,0.4-3.4,0.2c-1.2-0.2-2.3-0.9-3.5-2.1
		c-0.5-0.5-1.1-1.2-1.9-2.1c-0.8-0.9-1.7-1.9-2.7-3.1s-2-2.4-3-3.7c-1-1.3-2-2.6-2.9-3.9c-0.6,2.8-1,5.4-1.5,7.7
		c-0.4,2.3-0.8,4.5-1.2,6.4c0,0.6-0.1,1.1-0.4,1.3c-0.3,0.2-0.7,0.3-1.3,0.3c-0.6,0-1.2-0.1-2-0.4c-0.8-0.2-1.7-0.5-2.6-0.7
		c-1.9-0.5-3.3-1.2-4.2-1.9c-0.9-0.8-1.2-1.9-1.2-3.5c0-1.5,0.2-3.4,0.4-5.9c0.2-2.4,0.5-5.1,0.8-8c0.3-2.9,0.7-5.9,1.2-9.1
		c0.4-3.2,0.9-6.3,1.3-9.3c0.5-3,0.9-5.9,1.4-8.7c0.5-2.7,0.9-5.1,1.3-7.1c0.3-1.2,0.9-1.9,1.5-2.2c0.7-0.3,1.6-0.2,2.9,0.2
		c1.4,0.3,2.8,0.9,4.4,1.5c1.6,0.7,2.9,1.4,4.1,2.2c0.6,0.4,1.2,0.8,1.5,1.1c0.4,0.3,0.7,0.7,0.8,1c0.2,0.3,0.2,0.7,0.2,1.1
		c0,0.4-0.2,0.9-0.3,1.4c-0.6,2.2-1.3,4.7-1.9,7.5c-0.6,2.8-1.3,5.9-2,9.2c1.8-2,3.7-4.1,5.8-6.3c2.1-2.2,4.1-4.4,6.1-6.6
		c2-2.2,3.8-4.2,5.6-6.2c1.7-2,3.1-3.6,4.3-5c0.7-0.9,1.4-1.4,2-1.4c0.7,0,1.5,0.4,2.4,1.2c0.9,0.8,1.7,1.7,2.3,2.7
		c0.6,1,1.2,2,1.8,3.2c0.3,0.9,0.5,1.9,0.4,2.8s-0.6,2-1.4,3.3c-1,1.6-2.3,3.4-3.9,5.4c-1.6,2-3.4,4-5.4,6.1c-1.9,2.1-4,4.1-6,6.2
		c-2.1,2-4.1,4-6,5.8C451.9,62.3,452.8,63.7,453.8,65.2z"/>
</g>
<g>
	<path fill="#113F59" d="M52.8,56.2c1.2,0.6,2.1,1.7,2.6,3.1c0.5,1.4,0.9,3,1.1,4.7l0.9,7.9c0.4,3.6-0.3,6.5-2,8.8
		c-1.8,2.3-4.7,3.7-8.8,4.2L28.5,87L28,82.5c-0.1-1-0.1-1.7,0.1-2.3c0.2-0.6,0.5-1,1-1.3c0.2-0.1,0.4-0.3,0.6-0.6
		c0.2-0.3,0.2-0.6,0.2-1.1l-4.1-34.9c-0.1-0.8-0.4-1.2-1-1.4c-0.5-0.2-0.9-0.5-1.3-1.1c-0.4-0.5-0.6-1.3-0.7-2.4l-0.5-4.4l17.4-2
		c4.1-0.5,7.3,0.2,9.5,2.1c2.3,1.9,3.6,4.6,4,8.2l0.7,6c0.2,1.5,0.2,2.9,0.1,4.3c-0.1,1.4-0.6,2.5-1.4,3.4c-0.2,0.3-0.3,0.5-0.2,0.7
		C52.4,56,52.5,56.1,52.8,56.2z M36.9,51.8c0.1,0.7,0.3,1.1,0.6,1.2c0.3,0.1,0.7,0.2,1.3,0.2l1.8-0.2c1.1-0.1,2-0.6,2.6-1.3
		c0.6-0.8,0.9-1.8,0.7-3l-0.5-4.7c-0.2-1.6-0.7-2.7-1.4-3.4c-0.8-0.7-1.8-0.9-3-0.8L37.2,40c-0.7,0.1-1.1,0.2-1.3,0.4
		c-0.2,0.2-0.3,0.6-0.2,1.3L36.9,51.8z M46.5,65.8c-0.2-1.7-0.6-3-1.3-3.9c-0.6-0.9-1.6-1.3-2.8-1.2l-3.2,0.4
		c-0.4,0-0.7,0.2-0.9,0.5c-0.2,0.3-0.3,0.6-0.3,0.9l1.6,13.6c0,0.3,0.2,0.6,0.4,0.8c0.2,0.2,0.5,0.3,0.8,0.3l3.5-0.4
		c1.2-0.1,2.1-0.7,2.5-1.6c0.4-0.9,0.5-2,0.4-3.3L46.5,65.8z"/>
	<path fill="#113F59" d="M93.9,71.9c0.4,0.2,0.7,0.6,1.1,1.2c0.3,0.5,0.5,1.2,0.5,2v5.1H81V76c0-0.9,0.2-1.7,0.5-2.4
		c0.3-0.7,0.7-1.2,1.1-1.4c0.2-0.2,0.4-0.4,0.6-0.6c0.2-0.2,0.3-0.5,0.3-0.9c0-0.4-0.1-0.7-0.1-1.1c0-0.3-0.1-0.6-0.2-0.9
		C83.1,68.3,83,68,83,67.8c-0.1-0.4-0.3-0.6-0.5-0.8c-0.2-0.1-0.6-0.2-0.9-0.2h-6.8c-0.4,0-0.7,0-0.9,0.1c-0.2,0.1-0.3,0.4-0.4,0.8
		c0,0.2-0.1,0.5-0.1,0.8c0,0.3-0.1,0.6-0.2,0.9c-0.1,0.3-0.2,0.7-0.2,1.1c0,0.4,0,0.7,0.1,0.9c0.1,0.2,0.3,0.4,0.5,0.6
		c0.4,0.2,0.7,0.7,1.1,1.5c0.3,0.7,0.5,1.6,0.5,2.4v4.1H60.8v-5.1c0-0.8,0.2-1.5,0.5-2c0.4-0.5,0.7-0.9,1.1-1.2
		c0.2-0.2,0.5-0.4,0.7-0.7c0.2-0.2,0.3-0.6,0.4-0.9c1.4-6.4,2.6-12.2,3.7-17.3c0.5-2.2,0.9-4.3,1.4-6.4c0.4-2.1,0.8-3.9,1.2-5.6
		c0.4-1.6,0.7-3,0.9-4c0.2-1,0.3-1.5,0.3-1.6c0.1-0.4,0.1-0.7,0.1-1.1c0-0.3-0.1-0.5-0.4-0.6c-0.5-0.2-1-0.6-1.3-1.2
		c-0.3-0.6-0.5-1.4-0.5-2.5v-4.1h11.2c1.1,0,2,0.3,2.6,1c0.7,0.7,1.1,1.4,1.2,2.2c0,0.2,0.1,0.9,0.4,2.2c0.3,1.3,0.6,2.9,1.1,4.9
		s0.9,4.2,1.5,6.6c0.5,2.4,1.1,4.9,1.6,7.4c1.3,5.9,2.7,12.6,4.4,20C93,70.9,93.4,71.5,93.9,71.9z M80.8,58.5c0.3,0,0.6,0,0.7-0.1
		c0.1-0.1,0.1-0.3,0.1-0.5c0-0.1-0.1-0.6-0.3-1.5c-0.2-0.9-0.4-2-0.6-3.3c-0.2-1.3-0.5-2.7-0.7-4.2c-0.3-1.5-0.5-2.9-0.7-4.2
		c-0.2-1.3-0.4-2.4-0.6-3.3c-0.2-0.9-0.3-1.3-0.3-1.4c0-0.2-0.1-0.3-0.2-0.3c-0.1,0-0.2,0.1-0.3,0.2c0,0-0.1,0.5-0.2,1.4
		c-0.1,0.9-0.3,2-0.6,3.3c-0.2,1.3-0.5,2.7-0.8,4.2c-0.3,1.5-0.5,2.9-0.8,4.2c-0.2,1.3-0.4,2.5-0.6,3.4c-0.2,0.9-0.3,1.4-0.3,1.5
		c0,0.3,0,0.5,0.1,0.5c0.1,0.1,0.3,0.1,0.7,0.1H80.8z"/>
	<path fill="#113F59" d="M126.6,34c0.4,0.4,0.5,1.2,0.3,2.5l-0.7,5l-0.5,3.6l-4.2-0.6c-1.2-0.2-2.1-0.9-2.6-2.1
		c-0.2-0.6-0.4-0.9-0.5-1.2c-0.2-0.2-0.7-0.4-1.5-0.5l-0.9-0.1c-0.6-0.1-1,0.3-1.1,1.1l-4.7,34.8c-0.1,0.5,0,0.8,0.2,1
		c0.2,0.2,0.4,0.4,0.6,0.7c0.3,0.3,0.6,0.7,0.9,1.2c0.3,0.5,0.3,1.3,0.2,2.1l-0.6,4.6l-14.7-1.9l0.6-4.6c0.1-0.8,0.4-1.5,0.8-1.9
		c0.4-0.5,0.9-0.8,1.3-1c0.3-0.2,0.5-0.3,0.7-0.6c0.2-0.2,0.3-0.5,0.3-0.9l4.6-35c0-0.3-0.1-0.6-0.3-0.8c-0.3-0.2-0.5-0.3-0.8-0.4
		l-0.7-0.1c-0.3,0-0.6,0-1.1,0.1c-0.4,0.1-0.8,0.4-1.2,1c-0.4,0.6-0.9,1-1.3,1.2c-0.4,0.2-1.2,0.2-2.2,0.1l-3.7-0.5l0.5-4l0.6-4.7
		c0.1-1.1,0.5-1.8,1.1-2.2c0.6-0.3,1.3-0.5,2.1-0.3l26.5,3.5C125.6,33.3,126.2,33.6,126.6,34z"/>
	<path fill="#113F59" d="M158.1,19.4c0.4,0.3,0.7,1.1,0.8,2.3l0.4,5.1l0.3,3.6l-4.2,0.3c-1.3,0.1-2.2-0.4-3-1.5
		c-0.3-0.5-0.5-0.9-0.8-1c-0.2-0.2-0.8-0.2-1.6-0.2l-0.9,0.1c-0.6,0.1-0.9,0.5-0.8,1.3l2.7,35c0,0.5,0.2,0.8,0.4,1
		c0.2,0.2,0.4,0.4,0.7,0.5c0.4,0.2,0.7,0.6,1.1,1c0.4,0.5,0.6,1.2,0.7,2l0.4,4.6l-14.7,1.2l-0.4-4.6c-0.1-0.8,0.1-1.5,0.4-2.1
		c0.3-0.6,0.7-1,1-1.2c0.2-0.2,0.4-0.4,0.5-0.7c0.1-0.3,0.2-0.6,0.1-1L138.4,30c0-0.3-0.2-0.6-0.5-0.7c-0.3-0.1-0.6-0.2-0.8-0.2
		l-0.7,0.1c-0.3,0-0.6,0.1-1,0.3c-0.4,0.2-0.7,0.6-1,1.2c-0.3,0.7-0.6,1.2-1,1.5c-0.4,0.3-1.1,0.5-2.2,0.5l-3.8,0.3l-0.3-4l-0.4-4.7
		c-0.1-1.1,0.1-1.9,0.6-2.3c0.5-0.5,1.2-0.7,2-0.8L156,19C157,19,157.7,19.1,158.1,19.4z"/>
	<path fill="#113F59" d="M192.1,72.9l-1.2,9.3c-0.1,1-0.5,1.6-1.1,2c-0.6,0.4-1.1,0.6-1.5,0.5l-1-0.1l-25.3-3.2l0.6-4.6
		c0.1-1.1,0.4-1.8,0.7-2.4c0.3-0.5,0.8-0.9,1.3-1c0.3-0.1,0.5-0.2,0.7-0.4c0.2-0.2,0.4-0.5,0.4-0.8l4.3-34.5l0.1-0.4
		c0.1-0.5,0-0.8-0.1-1c-0.1-0.2-0.3-0.4-0.5-0.6c-0.3-0.3-0.7-0.8-1-1.4c-0.3-0.6-0.4-1.3-0.3-2.1l0.6-4.5l14.8,1.9l-0.6,4.5
		c-0.1,0.8-0.4,1.5-0.8,1.9c-0.5,0.5-0.9,0.8-1.3,1.1c-0.3,0.2-0.5,0.3-0.6,0.5c-0.1,0.2-0.2,0.5-0.3,1l-4.4,35
		c-0.1,0.8,0.2,1.3,0.8,1.3l5.3,0.7c0.3,0,0.7,0,1-0.2c0.3-0.2,0.6-0.4,0.8-0.6c0.3-0.4,0.8-1,1.4-1.6c0.7-0.6,1.5-0.8,2.6-0.7
		L192.1,72.9z"/>
	<path fill="#113F59" d="M208,37.2c-0.2,0.2-0.3,0.5-0.2,0.7l1.8,11.9c0,0.3,0.2,0.6,0.4,0.7c0.2,0.1,0.5,0.2,0.8,0.1l9-1.3
		c0.2,0,0.5,0,0.8,0.1c0.3,0.1,0.5,0.4,0.5,0.8l0.9,5.7c0.1,0.7-0.2,1.1-0.9,1.2l-9.1,1.4c-0.7,0.1-1,0.5-0.9,1.1l2,13.4
		c0,0.3,0.2,0.5,0.5,0.7c0.3,0.2,0.5,0.2,0.8,0.2l5.7-0.9c0.4-0.1,0.7-0.4,0.9-0.9c0.1-0.3,0.1-0.6,0.2-0.9c0.1-0.4,0.2-0.7,0.5-1
		c0.2-0.3,0.5-0.6,0.9-0.9c0.4-0.3,0.8-0.4,1.3-0.5l4.4-0.7l1.5,10c0.1,0.5-0.1,1-0.6,1.4c-0.5,0.4-1,0.7-1.5,0.7l-4.7,0.7
		l-16.4,2.4l-4.3,0.6l-0.6-4.3c-0.2-1.1-0.1-1.9,0.1-2.5c0.2-0.6,0.5-1,1-1.4c0.5-0.4,0.7-1,0.6-1.6l-5.2-34.9
		c-0.1-0.8-0.5-1.3-1.2-1.5c-0.5-0.2-0.9-0.5-1.3-0.9c-0.3-0.5-0.6-1.2-0.7-2.1l-0.7-4.5l25.7-3.8c0.6-0.1,1.1,0.1,1.6,0.4
		c0.5,0.4,0.7,0.7,0.8,1.1l1.4,9.5l-4.2,0.6c-1,0.1-1.8,0-2.4-0.4c-0.6-0.4-1.1-0.8-1.4-1.2c-0.4-0.5-1-0.7-1.6-0.6l-5.4,0.8
		C208.4,36.8,208.2,36.9,208,37.2z"/>
</g>
</svg>
