<?xml version="1.0" encoding="utf-8"?>
<!-- Generator: Adobe Illustrator 18.1.1, SVG Export Plug-In . SVG Version: 6.00 Build 0)  -->
<svg version="1.1" id="Calque_1" xmlns="http://www.w3.org/2000/svg" xmlns:xlink="http://www.w3.org/1999/xlink" x="0px" y="0px"
	 viewBox="0 0 100 100" enable-background="new 0 0 100 100" xml:space="preserve">
<g>
	<g>
		<path fill="#113F59" d="M50,20.2c16.8,0,31.5,10.6,32.5,29.1h6.7C88.3,26.7,72.4,9,50,9S11.7,26.7,10.8,49.3h6.7
			C18.4,30.9,33.1,20.2,50,20.2z"/>
		<path fill="#113F59" d="M14,72.9c0-7.2,3.5-13.5,9-17.4v-0.2H12.4c-4.2,0-7.7,3.5-7.7,7.7v19c0,4.2,3.4,7.8,7.7,7.8h10
			C17.3,85.8,14,79.8,14,72.9z"/>
		<path fill="#113F59" d="M87.6,55.3H76.8v0.2c1.1,0.8,2.2,1.6,3.1,2.6c3.8,4,6,9.2,6,14.8c0,6.9-3.3,13-8.4,16.9h10
			c4.2,0,7.7-3.5,7.7-7.8V63C95.3,58.8,91.8,55.3,87.6,55.3z"/>
	</g>
	<g>
		<path id="gamepad-3-icon" fill="#19BEC0" d="M66.3,57.9L66.3,57.9H34.2c-8.2,0-14.9,6.7-14.9,14.9s6.7,14.9,14.9,14.9
			c3.8,0,7.3-1.4,9.9-3.8c3.2-2.9,8.3-3.2,11.7-0.1c2.7,2.4,6.2,3.9,10.1,3.9c8.2,0,14.9-6.7,14.9-14.9
			C80.7,64.8,74.3,58.2,66.3,57.9z M40,74.5h-4.2v4.2h-3.6v-4.2h-4.2v-3.6h4.2v-4.2h3.6v4.2H40V74.5L40,74.5z M52.3,76.9h-4.5v-2.2
			h4.5V76.9z M64.4,67.3c0.8-0.8,2.2-0.8,3.1,0c0.8,0.8,0.8,2.2,0,3.1c-0.8,0.8-2.2,0.8-3.1,0C63.6,69.6,63.6,68.2,64.4,67.3z
			 M62.7,74.2c-0.8,0.8-2.2,0.8-3.1,0c-0.8-0.8-0.8-2.2,0-3.1c0.8-0.8,2.2-0.8,3.1,0C63.6,72,63.6,73.4,62.7,74.2z M67.5,78.1
			c-0.8,0.8-2.2,0.8-3.1,0s-0.8-2.2,0-3.1s2.2-0.8,3.1,0S68.4,77.3,67.5,78.1z M72.3,74.2c-0.8,0.8-2.2,0.8-3.1,0
			c-0.8-0.8-0.8-2.2,0-3.1c0.8-0.8,2.2-0.8,3.1,0C73.2,72,73.2,73.4,72.3,74.2z"/>
	</g>
</g>
</svg>
