<?xml version="1.0" encoding="utf-8"?>
<!-- Generator: Adobe Illustrator 18.1.1, SVG Export Plug-In . SVG Version: 6.00 Build 0)  -->
<svg version="1.1" id="Calque_1" xmlns="http://www.w3.org/2000/svg" xmlns:xlink="http://www.w3.org/1999/xlink" x="0px" y="0px"
	 viewBox="0 0 456 422" enable-background="new 0 0 456 422" xml:space="preserve">
<g>
	<g>
		<path fill="#113F59" d="M229.8,76.6C306.4,76.5,373.1,125,377.5,209H408C404,106,332.1,25.5,229.8,25.5S55.6,106,51.7,209h30.4
			C86.5,125,153.2,76.5,229.8,76.6z"/>
		<path fill="#113F59" d="M66.1,316.1c0-32.6,15.9-61.5,40.9-79V236H58.8C39.5,236,24,251.9,24,271.2v86.5
			c0,19.3,15.5,35.3,34.8,35.3h45.5C81.2,375,66.1,347.4,66.1,316.1z"/>
		<path fill="#113F59" d="M400.8,236H352v1.1c5,3.5,9.8,7.5,14.1,11.9c17.5,18.1,27.2,42,27.2,67.1c0,31.3-14.9,58.9-38,76.9h45.5
			c19.3,0,35.2-15.9,35.2-35.3v-86.5C436,251.9,420.2,236,400.8,236z"/>
	</g>
	<g>
		<path id="gamepad-3-icon" fill="#19BEC0" d="M299.4,252.7L299.4,252.7l-136.7,0c-35,0-63.4,28.4-63.4,63.4s28.4,63.4,63.4,63.4
			c16.2,0,31-6.1,42.2-16.1c13.8-12.4,35.2-13.4,49.5-0.4c11.3,10.3,26.2,16.5,42.7,16.5c35,0,63.4-28.4,63.4-63.4
			C360.4,281.8,333.3,253.9,299.4,252.7z M187.7,323.1h-18v18h-15.4v-18h-18v-15.4h18v-18h15.4v18h18L187.7,323.1L187.7,323.1z
			 M239.7,333.2h-19v-9.5h19V333.2z M291.3,292.6c3.6-3.6,9.5-3.6,13.1,0c3.6,3.6,3.6,9.5,0,13.1c-3.6,3.6-9.5,3.6-13.1,0
			C287.7,302.1,287.7,296.2,291.3,292.6z M283.9,321.9c-3.6,3.6-9.5,3.6-13.1,0c-3.6-3.6-3.6-9.5,0-13.1c3.6-3.6,9.5-3.6,13.1,0
			C287.6,312.5,287.6,318.3,283.9,321.9z M304.4,338.5c-3.6,3.6-9.5,3.6-13.1,0c-3.6-3.6-3.6-9.5,0-13.1c3.6-3.6,9.5-3.6,13.1,0
			C308,329,308,334.9,304.4,338.5z M324.8,321.9c-3.6,3.6-9.5,3.6-13.1,0c-3.6-3.6-3.6-9.5,0-13.1c3.6-3.6,9.5-3.6,13.1,0
			C328.4,312.5,328.4,318.3,324.8,321.9z"/>
	</g>
</g>
</svg>
